<?xml version="1.0" encoding="utf-8"?>
<!-- Generator: Adobe Illustrator 16.0.0, SVG Export Plug-In . SVG Version: 6.00 Build 0)  -->
<!DOCTYPE svg PUBLIC "-//W3C//DTD SVG 1.1//EN" "http://www.w3.org/Graphics/SVG/1.1/DTD/svg11.dtd">
<svg version="1.1" id="Слой_1" xmlns="http://www.w3.org/2000/svg" xmlns:xlink="http://www.w3.org/1999/xlink" x="0px" y="0px"
	 width="10.707px" height="22.938px" viewBox="0 0 10.707 22.938" enable-background="new 0 0 10.707 22.938" xml:space="preserve">
<g>
	<path id="Facebook" fill="#00BFA5" d="M2.313,4.442c0,0.578,0,3.158,0,3.158H0v3.862h2.313v11.476h4.753V11.462h3.189
		c0,0,0.299-1.853,0.443-3.876c-0.416,0-3.615,0-3.615,0s0-2.247,0-2.642S7.601,4.02,8.114,4.02c0.511,0,1.591,0,2.591,0
		c0-0.525,0-2.342,0-4.02C9.371,0,7.852,0,7.184,0C2.196,0,2.313,3.865,2.313,4.442z"/>
</g>
</svg>
