<?xml version="1.0" encoding="utf-8"?>
<!-- Generator: Adobe Illustrator 16.0.0, SVG Export Plug-In . SVG Version: 6.00 Build 0)  -->
<!DOCTYPE svg PUBLIC "-//W3C//DTD SVG 1.1//EN" "http://www.w3.org/Graphics/SVG/1.1/DTD/svg11.dtd">
<svg version="1.1" id="Слой_1" xmlns="http://www.w3.org/2000/svg" xmlns:xlink="http://www.w3.org/1999/xlink" x="0px" y="0px"
	 width="50px" height="50px" viewBox="0 0 50 50" enable-background="new 0 0 50 50" xml:space="preserve">
<path fill="#FFFFFF" d="M25,0C11.193,0,0,11.193,0,25s11.193,25,25,25c13.808,0,25-11.193,25-25S38.808,0,25,0z M30.976,16.685
	c-1.116,0-2.322,0-2.891,0c-0.573,0-1.151,0.593-1.151,1.033c0,0.439,0,2.947,0,2.947s3.571,0,4.035,0
	c-0.161,2.261-0.494,4.327-0.494,4.327h-3.561v12.81h-5.307V24.992h-2.583v-4.311h2.583c0,0,0-2.88,0-3.525
	c0-0.644-0.131-4.959,5.438-4.958c0.745,0,2.439,0,3.931,0C30.976,14.071,30.976,16.098,30.976,16.685z"/>
</svg>
