<?xml version="1.0" encoding="utf-8"?>
<!-- Generator: Adobe Illustrator 16.0.0, SVG Export Plug-In . SVG Version: 6.00 Build 0)  -->
<!DOCTYPE svg PUBLIC "-//W3C//DTD SVG 1.1//EN" "http://www.w3.org/Graphics/SVG/1.1/DTD/svg11.dtd">
<svg version="1.1" id="Слой_1" xmlns="http://www.w3.org/2000/svg" xmlns:xlink="http://www.w3.org/1999/xlink" x="0px" y="0px"
	 width="100px" height="100px" viewBox="0 0 100 100" enable-background="new 0 0 100 100" xml:space="preserve">
<g>
	<g>
		<path fill="#FFFFFF" d="M71.539,100H28.462C12.767,100,0,87.233,0,71.539V28.461C0,12.768,12.767,0,28.462,0h43.077
			C87.233,0,100,12.768,100,28.461v43.078C100,87.233,87.233,100,71.539,100z M28.462,8.572c-10.968,0-19.891,8.922-19.891,19.89
			v43.078c0,10.967,8.923,19.891,19.891,19.891h43.077c10.967,0,19.891-8.924,19.891-19.891V28.461
			c0-10.967-8.924-19.89-19.891-19.89H28.462z"/>
	</g>
	<g>
		<path fill="#FFFFFF" d="M50,75.604c-14.118,0-25.604-11.485-25.604-25.604c0-14.118,11.486-25.604,25.604-25.604
			c14.119,0,25.605,11.486,25.605,25.604C75.605,64.119,64.119,75.604,50,75.604z M50,32.967c-9.392,0-17.033,7.641-17.033,17.033
			c0,9.393,7.642,17.033,17.033,17.033c9.392,0,17.034-7.641,17.034-17.033C67.034,40.608,59.392,32.967,50,32.967z"/>
	</g>
	<g>
		<circle fill="#FFFFFF" cx="76.702" cy="22.931" r="6.154"/>
	</g>
</g>
</svg>
