<?xml version="1.0" encoding="utf-8"?>
<!-- Generator: Adobe Illustrator 16.0.0, SVG Export Plug-In . SVG Version: 6.00 Build 0)  -->
<!DOCTYPE svg PUBLIC "-//W3C//DTD SVG 1.1//EN" "http://www.w3.org/Graphics/SVG/1.1/DTD/svg11.dtd">
<svg version="1.1" id="Слой_1" xmlns="http://www.w3.org/2000/svg" xmlns:xlink="http://www.w3.org/1999/xlink" x="0px" y="0px"
	 width="57.907px" height="99.999px" viewBox="0 0 57.907 99.999" enable-background="new 0 0 57.907 99.999" xml:space="preserve">
<g>
	<g>
		<path fill="#FFFFFF" d="M32.578,0.352C19.956-1.786,5.031,5.903,2.698,21.322c-5.164,33.988,46.182,41.976,51.047,7.855
			C55.52,16.586,47.433,2.912,32.578,0.352z M28.632,36.179c-14.003,0.198-15.055-19.987-1.117-20.972
			C42.24,14.188,42.407,36.014,28.632,36.179z"/>
		<path fill="#FFFFFF" d="M54.959,96.696c-5.026,5.092-10.383,0.394-14.295-3.354c-3.391-3.255-7.396-7.3-10.916-10.061
			c-9.203,9.668-16.631,21.304-24.19,14.86c-9.007-7.692,8.709-19.001,13.048-25.674c-4.505-0.986-12.096-3.453-15.683-6.146
			c-3.581-2.731-4.239-9.005,0.101-12.097c5.193-3.748,8.644,0.36,14.792,2.333c23.174,7.464,32.15-13.443,39.021-1.183
			c5.85,10.453-14.072,15.089-16.436,16.696C49.965,81.214,62.225,89.3,54.959,96.696z"/>
	</g>
</g>
</svg>
