<?xml version="1.0" encoding="utf-8"?>
<!-- Generator: Adobe Illustrator 16.0.0, SVG Export Plug-In . SVG Version: 6.00 Build 0)  -->
<!DOCTYPE svg PUBLIC "-//W3C//DTD SVG 1.1//EN" "http://www.w3.org/Graphics/SVG/1.1/DTD/svg11.dtd">
<svg version="1.1" id="Слой_1" xmlns="http://www.w3.org/2000/svg" xmlns:xlink="http://www.w3.org/1999/xlink" x="0px" y="0px"
	 width="99.999px" height="57.444px" viewBox="0 0 99.999 57.444" enable-background="new 0 0 99.999 57.444" xml:space="preserve">
<path fill="#FFFFFF" d="M21.934,5.927c2.793,6.894,6.326,13.397,10.989,19.229c0.62,0.777,1.396,1.466,2.218,2.028
	c1.195,0.821,2.326,0.54,2.813-0.832c0.519-1.442,0.992-4.362,1.018-5.872c0.082-3.95-0.007-6.535-0.221-10.479
	c-0.138-2.526-1.036-4.746-4.752-5.415c-1.144-0.202-1.252-1.15-0.519-2.093c1.536-1.959,3.678-2.274,5.992-2.395
	c3.76-0.203,7.533-0.038,11.293,0c1.529,0.012,3.073,0.133,4.583,0.468c1.972,0.422,3.021,1.807,3.349,3.729
	c0.163,0.991,0.252,2.009,0.228,3.015c-0.096,4.309-0.302,8.613-0.354,12.922c-0.018,1.696,0.1,3.427,0.467,5.069
	c0.506,2.293,2.067,2.869,3.666,1.216c2.03-2.104,3.818-4.476,5.498-6.885c3.046-4.373,5.328-9.184,7.287-14.138
	c1.017-2.552,1.795-3.108,4.545-3.114c5.162-0.013,10.331-0.02,15.502,0c0.916,0.006,1.877,0.094,2.742,0.366
	c1.403,0.448,1.959,1.593,1.631,3.046c-0.764,3.407-2.611,6.302-4.575,9.082c-3.167,4.461-6.479,8.821-9.714,13.234
	c-0.419,0.561-0.777,1.162-1.119,1.769c-1.207,2.187-1.125,3.413,0.639,5.233c2.813,2.901,5.82,5.611,8.544,8.594
	c1.979,2.161,3.805,4.513,5.372,6.99c1.984,3.128,0.759,6.079-2.944,6.603c-2.325,0.33-13.708,0-14.296,0
	c-3.064-0.011-5.744-1.073-7.905-3.151c-2.401-2.313-4.583-4.855-6.889-7.269c-0.695-0.726-1.436-1.423-2.237-2.033
	c-1.891-1.438-3.742-1.119-4.619,1.099c-0.754,1.902-1.404,6.9-1.436,7.324c-0.158,2.236-1.579,3.659-4.082,3.798
	c-7.219,0.393-14.213-0.417-20.729-3.905c-5.518-2.958-9.929-7.141-13.751-12.021c-6.068-7.741-10.857-16.254-15.237-25.02
	C4.706,15.672,0.27,6.235,0.149,5.793c-0.391-1.492-0.024-2.921,1.239-3.406c0.785-0.31,15.396,0,15.642,0.014
	C19.361,2.526,20.954,3.504,21.934,5.927L21.934,5.927z M21.934,5.927"/>
</svg>
