<?xml version="1.0" encoding="utf-8"?>
<!-- Generator: Adobe Illustrator 16.0.0, SVG Export Plug-In . SVG Version: 6.00 Build 0)  -->
<!DOCTYPE svg PUBLIC "-//W3C//DTD SVG 1.1//EN" "http://www.w3.org/Graphics/SVG/1.1/DTD/svg11.dtd">
<svg version="1.1" id="Слой_1" xmlns="http://www.w3.org/2000/svg" xmlns:xlink="http://www.w3.org/1999/xlink" x="0px" y="0px"
	 width="10.706px" height="22.938px" viewBox="0 0 10.706 22.938" enable-background="new 0 0 10.706 22.938" xml:space="preserve">
<g>
	<path id="Facebook" fill="#FFFFFF" d="M2.313,4.442c0,0.578,0,3.158,0,3.158H0v3.862h2.313v11.476h4.753V11.462h3.189
		c0,0,0.299-1.852,0.443-3.876c-0.416,0-3.615,0-3.615,0s0-2.247,0-2.641c0-0.395,0.518-0.925,1.031-0.925c0.51,0,1.59,0,2.59,0
		c0-0.526,0-2.342,0-4.02C9.37,0,7.852,0,7.184,0C2.196,0,2.313,3.865,2.313,4.442z"/>
</g>
</svg>
